<?xml version="1.0" standalone="no"?><!DOCTYPE svg PUBLIC "-//W3C//DTD SVG 1.1//EN" "http://www.w3.org/Graphics/SVG/1.1/DTD/svg11.dtd"><svg t="1779509491333" class="icon" viewBox="0 0 1024 1024" version="1.1" xmlns="http://www.w3.org/2000/svg" p-id="14582" width="256" height="256" xmlns:xlink="http://www.w3.org/1999/xlink"><path d="M768 85.333333a42.666667 42.666667 0 0 1 40.362667 28.885334l5.546666 16.128c12.8 37.504 42.24 66.986667 79.786667 79.786666l16.085333 5.504a42.666667 42.666667 0 0 1 0 80.725334l-16.128 5.546666c-37.504 12.8-66.986667 42.24-79.786666 79.786667l-5.504 16.085333a42.666667 42.666667 0 0 1-80.725334 0l-5.546666-16.128a128 128 0 0 0-79.786667-79.786666l-16.085333-5.504a42.666667 42.666667 0 0 1 0-80.725334l16.128-5.546666c37.504-12.8 66.986667-42.24 79.786666-79.786667l5.504-16.085333C734.805333 97.493333 748.885333 85.333333 768 85.333333m0 136.362667a213.333333 213.333333 0 0 1-34.304 34.304q19.114667 15.146667 34.304 34.261333A213.333333 213.333333 0 0 1 802.261333 256 213.333333 213.333333 0 0 1 768 221.696m-552.533333 18.773333l241.365333 241.365334a42.666667 42.666667 0 0 1 0 60.330666L215.466667 783.530667a42.666667 42.666667 0 0 1-60.330667-60.330667L366.336 512l-211.2-211.2A42.666667 42.666667 0 1 1 215.466667 240.469333M853.333333 725.333333a42.666667 42.666667 0 1 1 0 85.333334h-341.333333a42.666667 42.666667 0 1 1 0-85.333334z" fill="#ffffff" p-id="14583"></path></svg>